<svg width="26" height="26" viewBox="0 0 26 26" fill="none" xmlns="http://www.w3.org/2000/svg">
<path d="M14.3 15.6H16.9V11.7H20.8V9.1H16.9V5.2H14.3V9.1H10.4V11.7H14.3V15.6ZM7.8 20.8C7.085 20.8 6.47292 20.5454 5.96375 20.0363C5.45458 19.5271 5.2 18.915 5.2 18.2V2.6C5.2 1.885 5.45458 1.27292 5.96375 0.76375C6.47292 0.254583 7.085 0 7.8 0H23.4C24.115 0 24.7271 0.254583 25.2362 0.76375C25.7454 1.27292 26 1.885 26 2.6V18.2C26 18.915 25.7454 19.5271 25.2362 20.0363C24.7271 20.5454 24.115 20.8 23.4 20.8H7.8ZM7.8 18.2H23.4V2.6H7.8V18.2ZM2.6 26C1.885 26 1.27292 25.7454 0.76375 25.2362C0.254583 24.7271 0 24.115 0 23.4V5.2H2.6V23.4H20.8V26H2.6Z" fill="white"/>
</svg>
