<svg width="24" height="25" viewBox="0 0 24 25" fill="none" xmlns="http://www.w3.org/2000/svg">
<path d="M13.2 14.8182H15.6V11.1818H19.2V8.75755H15.6V5.12119H13.2V8.75755H9.6V11.1818H13.2V14.8182ZM7.2 19.6666C6.54 19.6666 5.975 19.4293 5.505 18.9545C5.035 18.4798 4.8 17.9091 4.8 17.2424V2.69695C4.8 2.03028 5.035 1.45957 5.505 0.984826C5.975 0.510079 6.54 0.272705 7.2 0.272705H21.6C22.26 0.272705 22.825 0.510079 23.295 0.984826C23.765 1.45957 24 2.03028 24 2.69695V17.2424C24 17.9091 23.765 18.4798 23.295 18.9545C22.825 19.4293 22.26 19.6666 21.6 19.6666H7.2ZM7.2 17.2424H21.6V2.69695H7.2V17.2424ZM2.4 24.5151C1.74 24.5151 1.175 24.2778 0.705 23.803C0.235 23.3283 0 22.7576 0 22.0909V5.12119H2.4V22.0909H19.2V24.5151H2.4Z" fill="#0C0A61"/>
</svg>
