<svg width="26" height="27" viewBox="0 0 26 27" fill="none" xmlns="http://www.w3.org/2000/svg">
<path d="M11.7 19.8611H14.3V14.6611H19.5V12.0611H14.3V6.86111H11.7V12.0611H6.5V14.6611H11.7V19.8611ZM13 26.3611C11.2017 26.3611 9.51167 26.0199 7.93 25.3374C6.34833 24.6549 4.9725 23.7286 3.8025 22.5586C2.6325 21.3886 1.70625 20.0128 1.02375 18.4311C0.34125 16.8494 0 15.1594 0 13.3611C0 11.5628 0.34125 9.87278 1.02375 8.29111C1.70625 6.70945 2.6325 5.33361 3.8025 4.16361C4.9725 2.99361 6.34833 2.06736 7.93 1.38486C9.51167 0.702365 11.2017 0.361115 13 0.361115C14.7983 0.361115 16.4883 0.702365 18.07 1.38486C19.6517 2.06736 21.0275 2.99361 22.1975 4.16361C23.3675 5.33361 24.2937 6.70945 24.9762 8.29111C25.6587 9.87278 26 11.5628 26 13.3611C26 15.1594 25.6587 16.8494 24.9762 18.4311C24.2937 20.0128 23.3675 21.3886 22.1975 22.5586C21.0275 23.7286 19.6517 24.6549 18.07 25.3374C16.4883 26.0199 14.7983 26.3611 13 26.3611ZM13 23.7611C15.9033 23.7611 18.3625 22.7536 20.3775 20.7386C22.3925 18.7236 23.4 16.2644 23.4 13.3611C23.4 10.4578 22.3925 7.99861 20.3775 5.98361C18.3625 3.96861 15.9033 2.96111 13 2.96111C10.0967 2.96111 7.6375 3.96861 5.6225 5.98361C3.6075 7.99861 2.6 10.4578 2.6 13.3611C2.6 16.2644 3.6075 18.7236 5.6225 20.7386C7.6375 22.7536 10.0967 23.7611 13 23.7611Z" fill="#0C0A61"/>
</svg>
