<svg id="Layer_1" data-name="Layer 1" xmlns="http://www.w3.org/2000/svg" viewBox="0 0 512 512"><title>snowflake</title><rect width="512" height="512" fill="#696969"/><path d="M89,268.64l28.77-.28L92.47,294.15a11.15,11.15,0,0,0,15.93,15.61l40.91-41.66,79.9-.71L174,323.57l-58.36.54a11.13,11.13,0,1,0,.15,22.25l36.12-.32L131,367.42a11.06,11.06,0,0,0,.11,15.72,11.11,11.11,0,0,0,15.78-.17l20.94-21.32.32,36.11a11.15,11.15,0,0,0,22.31-.21l-.54-58.37,55.21-56.24.7,80-40.9,41.62a11.14,11.14,0,1,0,15.89,15.61l25.29-25.73.22,28.78a11.15,11.15,0,1,0,22.29-.22l-.26-28.82,25.77,25.34a11.11,11.11,0,0,0,15.78-.17,11.09,11.09,0,0,0-.17-15.72l-41.66-41-.71-79.9L323.57,338l.5,58.37a11.15,11.15,0,1,0,22.29-.22L346,360l21.32,21A11.15,11.15,0,1,0,383,365.08l-21.32-20.94,36.06-.33a11.15,11.15,0,1,0-.17-22.29l-58.41.54-56.2-55.21,79.91-.71,41.66,41a11.14,11.14,0,0,0,15.61-15.89l-25.79-25.34,28.84-.28a11.12,11.12,0,1,0-.22-22.24l-28.77.26,25.29-25.77a11.14,11.14,0,0,0-15.89-15.62l-40.9,41.68-79.9.7,55.15-56.18,58.41-.49a11.15,11.15,0,0,0-.17-22.29L360,166l21-21.37A11.13,11.13,0,0,0,365.14,129L344.2,150.34l-.33-36.12a11.15,11.15,0,1,0-22.29.22l.54,58.36L266.9,229l-.71-79.84,40.91-41.66a11.14,11.14,0,1,0-15.89-15.61l-25.29,25.77-.28-28.82a11.15,11.15,0,1,0-22.29.22l.26,28.77L217.85,92.53a11.13,11.13,0,1,0-15.61,15.87l41.66,40.91.7,79.9L188.41,174l-.54-58.36a11.12,11.12,0,0,0-22.24.15L166,152l-21.37-21A11.14,11.14,0,0,0,129,146.86l21.37,21-36.12.26a11.15,11.15,0,1,0,.22,22.31l58.36-.49L229,245.1l-79.9.7-41.61-40.9a11.15,11.15,0,0,0-15.66,15.87l25.77,25.3-28.77.26A11.15,11.15,0,0,0,89,268.64Z" fill="#fff"/></svg>