<svg width="26" height="18" viewBox="0 0 26 18" fill="none" xmlns="http://www.w3.org/2000/svg">
<path d="M13 14.1818C14.4773 14.1818 15.733 13.6648 16.767 12.6307C17.8011 11.5966 18.3182 10.3409 18.3182 8.86364C18.3182 7.38636 17.8011 6.13068 16.767 5.09659C15.733 4.0625 14.4773 3.54545 13 3.54545C11.5227 3.54545 10.267 4.0625 9.23295 5.09659C8.19886 6.13068 7.68182 7.38636 7.68182 8.86364C7.68182 10.3409 8.19886 11.5966 9.23295 12.6307C10.267 13.6648 11.5227 14.1818 13 14.1818ZM13 12.0545C12.1136 12.0545 11.3602 11.7443 10.7398 11.1239C10.1193 10.5034 9.80909 9.75 9.80909 8.86364C9.80909 7.97727 10.1193 7.22386 10.7398 6.60341C11.3602 5.98295 12.1136 5.67273 13 5.67273C13.8864 5.67273 14.6398 5.98295 15.2602 6.60341C15.8807 7.22386 16.1909 7.97727 16.1909 8.86364C16.1909 9.75 15.8807 10.5034 15.2602 11.1239C14.6398 11.7443 13.8864 12.0545 13 12.0545ZM13 17.7273C10.1242 17.7273 7.50455 16.9246 5.14091 15.3193C2.77727 13.714 1.06364 11.5621 0 8.86364C1.06364 6.16515 2.77727 4.01326 5.14091 2.40795C7.50455 0.802652 10.1242 0 13 0C15.8758 0 18.4955 0.802652 20.8591 2.40795C23.2227 4.01326 24.9364 6.16515 26 8.86364C24.9364 11.5621 23.2227 13.714 20.8591 15.3193C18.4955 16.9246 15.8758 17.7273 13 17.7273ZM13 15.3636C15.2258 15.3636 17.2693 14.7777 19.1307 13.6057C20.992 12.4337 22.4152 10.853 23.4 8.86364C22.4152 6.87424 20.992 5.29356 19.1307 4.12159C17.2693 2.94962 15.2258 2.36364 13 2.36364C10.7742 2.36364 8.73068 2.94962 6.86932 4.12159C5.00795 5.29356 3.58485 6.87424 2.6 8.86364C3.58485 10.853 5.00795 12.4337 6.86932 13.6057C8.73068 14.7777 10.7742 15.3636 13 15.3636Z" fill="#0C0A61"/>
</svg>
